<svg width="85" height="34" viewBox="0 0 85 34" fill="none" xmlns="http://www.w3.org/2000/svg">
<path d="M11.901 33H1.23438L7.09058 13.9673H18.3847L11.901 33Z" fill="#B7AB98"/>
<path d="M11.901 1L8.76379 10.2026H19.4305L32.8161 33H42.437L68.1625 10.2026H70.254L61.2605 33H72.5546L83.4305 1H68.1625H65.6527L39.9272 23.5882H38.8814L28.0056 1H11.901Z" fill="#B7AB98"/>
<path d="M11.901 33H1.23438L7.09058 13.9673H18.3847L11.901 33Z" stroke="black"/>
<path d="M11.901 1L8.76379 10.2026H19.4305L32.8161 33H42.437L68.1625 10.2026H70.254L61.2605 33H72.5546L83.4305 1H68.1625H65.6527L39.9272 23.5882H38.8814L28.0056 1H11.901Z" stroke="black"/>
</svg>
